<?xml version="1.0" standalone="no"?>
<svg style="background: #fff" xmlns="http://www.w3.org/2000/svg" xmlns:xlink="http://www.w3.org/1999/xlink" version="1.1" width="221px" height="621px" viewBox="-0.5 -0.5 221 621"><defs><style>* {margin: 0px; padding: 0px;}</style></defs><g><path d="M 110 60 L 110 133.63" fill="none" stroke="#000000" stroke-miterlimit="10" pointer-events="none"/><path d="M 110 138.88 L 106.5 131.88 L 110 133.63 L 113.5 131.88 Z" fill="#000000" stroke="#000000" stroke-miterlimit="10" pointer-events="none"/><rect x="20" y="0" width="180" height="60" rx="3.6" ry="3.6" fill="#ffffff" stroke="#000000" pointer-events="none"/><path d="M 45.2 0 L 45.2 60 M 174.8 0 L 174.8 60" fill="none" stroke="#000000" stroke-miterlimit="10" pointer-events="none"/><g fill="#000000" font-family="Helvetica" text-anchor="middle" font-size="12px"><text x="109.5" y="33.5">Close Application</text></g><path d="M 110 200 L 110 273.63" fill="none" stroke="#000000" stroke-miterlimit="10" pointer-events="none"/><path d="M 110 278.88 L 106.5 271.88 L 110 273.63 L 113.5 271.88 Z" fill="#000000" stroke="#000000" stroke-miterlimit="10" pointer-events="none"/><rect x="0" y="140" width="220" height="60" rx="4.2" ry="4.2" fill="#ffffff" stroke="#000000" pointer-events="none"/><g fill="#000000" font-family="Helvetica" text-anchor="middle" font-size="12px"><text x="109.5" y="173.5">Stop LoadLatestLogs Timer</text></g><path d="M 110 340 L 110 413.63" fill="none" stroke="#000000" stroke-miterlimit="10" pointer-events="none"/><path d="M 110 418.88 L 106.5 411.88 L 110 413.63 L 113.5 411.88 Z" fill="#000000" stroke="#000000" stroke-miterlimit="10" pointer-events="none"/><rect x="40" y="280" width="140" height="60" rx="4.2" ry="4.2" fill="#ffffff" stroke="#000000" pointer-events="none"/><g fill="#000000" font-family="Helvetica" text-anchor="middle" font-size="12px"><text x="109.5" y="313.5">Close JavaFX stage</text></g><path d="M 110 480 L 110 553.63" fill="none" stroke="#000000" stroke-miterlimit="10" pointer-events="none"/><path d="M 110 558.88 L 106.5 551.88 L 110 553.63 L 113.5 551.88 Z" fill="#000000" stroke="#000000" stroke-miterlimit="10" pointer-events="none"/><rect x="20" y="420" width="180" height="60" rx="4.2" ry="4.2" fill="#ffffff" stroke="#000000" pointer-events="none"/><g fill="#000000" font-family="Helvetica" text-anchor="middle" font-size="12px"><text x="109.5" y="453.5">Exit Java process gracefully</text></g><path d="M 90.61 560 L 129.39 560 C 146.29 560 160 573.43 160 590 C 160 606.57 146.29 620 129.39 620 L 90.61 620 C 73.71 620 60 606.57 60 590 C 60 573.43 73.71 560 90.61 560 Z" fill="#ffffff" stroke="#000000" stroke-miterlimit="10" pointer-events="none"/><g fill="#000000" font-family="Helvetica" text-anchor="middle" font-size="12px"><text x="109.5" y="593.5">End</text></g></g></svg>